<!-- Generated by scripts/brand/domain-services.mjs in the mother. Do not hand-edit. -->
<svg xmlns="http://www.w3.org/2000/svg" viewBox="0 0 346 343" role="img" aria-label="Corporate Domain Registry" fill="none"><g transform="translate(-144 -476)"><path d="M490 476 H178 A34 34 0 0 0 144 510 V785 A34 34 0 0 0 178 819 H490 V799 H178 A14 14 0 0 1 164 785 V510 A14 14 0 0 1 178 496 H490 Z M197 533 H321 V634 H197 Z" fill="var(--cdr-mark-navy, #0c1b54)"/><path d="M334 533 H490 V552 H334 Z M334 575 H490 V593 H334 Z M334 616 H490 V634 H334 Z M197 658 H490 V677 H197 Z M197 700 H490 V718 H197 Z M197 742 H490 V760 H197 Z" fill="var(--cdr-mark-red, #c90617)"/></g></svg>
